<?xml version="1.0" standalone="no"?>
<!DOCTYPE svg PUBLIC "-//W3C//DTD SVG 1.1//EN" "http://www.w3.org/Graphics/SVG/1.1/DTD/svg11.dtd" >
<svg>
<metadata>
Created by FontForge 20090622 at Wed Mar  5 05:02:43 2014
 By ffonts
1.2, Copyright Copr. Castcraft Software, Inc. 1990-1991.
</metadata>
<defs>
<font id="OPTILatin-Elongated" horiz-adv-x="176" >
  <font-face 
    font-family="OPTILatin-Elongated"
    font-weight="500"
    font-stretch="normal"
    units-per-em="1000"
    panose-1="0 0 0 0 0 0 0 0 0 0"
    ascent="800"
    descent="-200"
    x-height="576"
    cap-height="788"
    bbox="-28 -235 855.485 1133.21"
    underline-thickness="59"
    underline-position="-78"
    stemh="49"
    stemv="68"
    unicode-range="U+0020-U+FB02"
  />
<missing-glyph horiz-adv-x="280" 
 />
    <glyph glyph-name=".notdef" horiz-adv-x="280" 
 />
    <glyph glyph-name="space" unicode=" " horiz-adv-x="187" 
d="M58 0z" />
    <glyph glyph-name="exclam" unicode="!" horiz-adv-x="207" 
d="M133 779h74v-262l-39 -356l-35 354v264zM205 105v-105h-75v105h75z" />
    <glyph glyph-name="quotedbl" unicode="&#x22;" horiz-adv-x="300" 
d="M134 463h-21l-18 203c-1 21 -18 107 10 124c12 7 27 7 38 0c23 -17 7 -120 7 -126zM232 463h-23l-17 203c-1 21 -17 107 10 124c13 7 27 7 37 0c25 -17 10 -120 10 -126z" />
    <glyph glyph-name="numbersign" unicode="#" horiz-adv-x="689" 
d="M434 779l-67 -242h151l68 242h52l-67 -242h146l-15 -55h-146l-54 -190h146l-14 -53h-147l-68 -240h-52l66 240h-150l-67 -240h-55l68 240h-144l15 53h144l55 190h-144l14 55h144l68 242h53zM298 292h150l56 190h-153z" />
    <glyph glyph-name="dollar" unicode="$" horiz-adv-x="319" 
d="M207 846h29v-56c23 -15 34 -27 50 -57l29 52h8l-5 -281h-6c-21 48 -42 143 -52 177c-2 10 -12 43 -24 48v-259c132 -104 142 -247 114 -350c-15 -58 -50 -124 -114 -132v-51h-29v52c-32 18 -48 32 -76 78l-29 -67h-10v307h10c7 -8 59 -191 59 -191c3 -12 8 -26 13 -35
c2 -6 14 -26 33 -31v309c-108 90 -124 208 -114 282c7 53 32 138 114 153v52zM176 725c-3 -5 -6 -10 -11 -30c-15 -69 -7 -137 42 -201v250c-17 3 -26 -12 -31 -19zM236 43c13 0 25 12 34 25c3 5 7 15 12 37c15 66 8 165 -46 225v-287z" />
    <glyph glyph-name="percent" unicode="%" horiz-adv-x="502" 
d="M482 784c13 -4 11 -15 7 -26l-320 -745c-4 -9 -9 -23 -37 -13c-7 3 -6 10 -1 21l313 735c15 37 21 35 38 28zM172 372c-51 40 -65 162 -63 220c3 78 23 158 67 186c12 9 25 9 37 0c44 -28 64 -108 67 -186c3 -58 -11 -180 -62 -220c-12 -8 -34 -8 -46 0zM163 498
c0 -37 5 -91 24 -103c4 -2 10 -3 17 1c17 13 22 74 22 113c0 0 1 46 1 76c0 24 -1 63 -1 63c0 38 -5 98 -22 111c-7 4 -13 3 -17 1c-19 -13 -24 -65 -24 -103c0 0 -1 -43 -1 -71c0 -35 1 -88 1 -88zM412 -5c-51 39 -65 161 -63 220c3 77 23 157 67 185c12 9 25 9 38 0
c43 -28 64 -108 66 -185c3 -59 -11 -181 -62 -220c-12 -9 -34 -9 -46 0zM403 121c0 -38 5 -92 24 -104c4 -2 11 -3 17 1c17 13 22 74 22 113c0 0 1 46 1 76c0 25 -1 63 -1 63c0 38 -5 98 -22 111c-6 4 -13 3 -17 1c-19 -13 -24 -65 -24 -102c0 0 -1 -44 -1 -72
c0 -35 1 -87 1 -87z" />
    <glyph glyph-name="ampersand" unicode="&#x26;" horiz-adv-x="456" 
d="M303 512l74 -287c20 59 36 265 35 297l-37 58h122l-41 -57c3 -90 -37 -376 -46 -419l21 -70c5 -3 45 -34 45 -34h-122l-10 33c-51 -38 -94 -54 -142 -36c-59 23 -91 97 -102 146c-25 122 7 245 125 354c-18 53 -46 208 26 276c20 18 45 24 70 16c32 -10 54 -42 61 -77
c14 -65 -2 -126 -79 -200zM334 696c-3 25 -12 46 -28 52c-9 3 -18 0 -26 -8c-26 -26 -6 -127 9 -171c40 48 50 86 45 127zM238 439c-78 -96 -72 -238 -36 -338c8 -22 24 -52 48 -57c15 -3 39 8 58 29c10 9 13 15 19 24c-28 126 -84 331 -89 342z" />
    <glyph glyph-name="quotesingle" unicode="'" horiz-adv-x="210" 
d="M210 788v-61c0 -105 -24 -199 -102 -204v8c13 3 22 12 29 21c5 7 13 18 19 39c3 13 6 54 5 78l-28 3v116h77z" />
    <glyph glyph-name="parenleft" unicode="(" horiz-adv-x="283" 
d="M320 790l6 -3c-183 -191 -197 -547 -127 -753c21 -63 41 -120 116 -206l-4 -5c-187 140 -232 400 -216 562c11 111 75 325 225 405z" />
    <glyph glyph-name="parenright" unicode=")" horiz-adv-x="284" 
d="M315 385c16 -162 -29 -422 -216 -562l-4 5c75 86 95 143 116 206c70 206 56 562 -127 753l6 3c150 -80 214 -294 225 -405z" />
    <glyph glyph-name="asterisk" unicode="*" horiz-adv-x="312" 
d="M241 671c6 -3 83 76 97 73c7 -1 14 1 22 -13c4 -6 3 -14 -1 -21c-7 -12 -111 -47 -111 -53c0 -7 106 -40 113 -58c1 -3 3 -15 -5 -23c-8 -10 -11 -10 -22 -9c-15 2 -89 78 -93 73c-5 -4 20 -104 13 -115c-4 -4 -12 -11 -23 -10c-10 2 -16 6 -21 12c-6 9 16 111 12 113
c-9 5 -83 -73 -97 -72c-7 0 -16 2 -21 14c-4 7 -4 14 0 21c5 12 114 46 114 54s-110 41 -116 59c-1 9 -3 14 6 23c5 6 13 9 24 5c12 -2 86 -78 93 -75c6 3 -14 112 -4 123c3 4 10 9 21 8c15 -2 16 -6 21 -12c6 -11 -28 -112 -22 -117z" />
    <glyph glyph-name="plus" unicode="+" horiz-adv-x="673" 
d="M368 615h67v-275h268v-64h-268v-276h-67v276h-269v64h269v275z" />
    <glyph glyph-name="comma" unicode="," horiz-adv-x="210" 
d="M210 115v-61c0 -104 -24 -198 -102 -203v8c13 2 22 12 29 20c5 8 13 19 19 40c3 13 6 53 5 78l-28 3v115h77z" />
    <glyph glyph-name="hyphen" unicode="-" horiz-adv-x="274" 
d="M274 320v-65h-141v65h141z" />
    <glyph glyph-name="period" unicode="." horiz-adv-x="199" 
d="M133 104h66v-104h-66v104z" />
    <glyph glyph-name="slash" unicode="/" horiz-adv-x="431" 
d="M418 810c13 -4 11 -15 7 -27l-330 -770c-3 -9 -9 -23 -36 -13c-8 3 -7 10 -1 21l322 760c15 38 21 35 38 29z" />
    <glyph glyph-name="zero" unicode="0" horiz-adv-x="363" 
d="M226 792c16 6 42 5 62 -9c90 -64 112 -287 112 -372c0 -71 -26 -346 -124 -412c-13 -10 -33 -16 -53 -8c-66 29 -96 169 -105 208c-26 125 -49 433 71 564c15 15 28 25 37 29zM188 577c0 0 -1 -66 -1 -80l5 -300c1 -86 16 -145 43 -162c8 -5 16 -4 23 0
c28 15 41 81 42 141l7 416c1 69 -11 142 -41 160c-11 7 -22 6 -31 0c-36 -19 -46 -120 -47 -175z" />
    <glyph glyph-name="one" unicode="1" horiz-adv-x="363" 
d="M165 0v11l59 47v63v457c-11 -32 -59 -113 -88 -141l-11 5c29 47 61 115 98 202l26 68c14 36 20 64 24 94h29v-685v-63l53 -47v-11h-190z" />
    <glyph glyph-name="two" unicode="2" horiz-adv-x="363" 
d="M163 68h125c9 57 50 205 70 240h10v-308h-273c5 57 23 116 49 171l76 161c45 96 106 322 53 399c-10 15 -26 28 -42 27c-15 -1 -29 -14 -39 -34c-27 -55 -10 -247 -4 -280l-43 -19c-33 83 -45 253 10 331c22 32 54 48 87 43c45 -5 78 -32 105 -83
c62 -122 13 -252 -55 -379l-108 -206c-11 -21 -18 -45 -21 -63z" />
    <glyph glyph-name="three" unicode="3" horiz-adv-x="362" 
d="M276 412c73 -25 95 -86 104 -147c5 -42 -3 -193 -72 -249c-35 -28 -82 -33 -117 -20c-49 18 -71 56 -81 104c-11 53 -10 116 17 188l45 2c-3 -20 -24 -195 21 -237c16 -15 33 -19 47 -15c18 6 34 22 43 48c10 38 20 240 -10 278c-12 15 -23 22 -49 23h-51v57
c39 1 80 -6 98 21c19 29 16 221 4 251c-6 17 -10 30 -34 34c-13 3 -23 -2 -34 -13c-34 -39 -28 -175 -23 -214l-44 7c-14 61 -15 184 26 230c23 25 55 35 84 32c31 -3 56 -20 79 -59c34 -59 39 -198 13 -259c-15 -34 -31 -55 -66 -62z" />
    <glyph glyph-name="four" unicode="4" horiz-adv-x="363" 
d="M162 217h90v344s-9 -37 -13 -59c-24 -112 -77 -285 -77 -285zM347 156h-17v-98l53 -47v-11h-190v11l59 47v98h-162l173 579l-38 48h149l-44 -49v-517h17l28 87h6v-222h-6z" />
    <glyph glyph-name="five" unicode="5" horiz-adv-x="363" 
d="M303 804v-202h-7l-47 110h-59l-10 -233c17 29 39 43 74 40c47 -5 73 -38 95 -85c36 -80 33 -314 -22 -395c-30 -43 -68 -54 -106 -52c-36 3 -68 25 -91 70c-28 57 -21 153 -5 210l46 2v-16c0 -73 -11 -179 42 -211c13 -9 28 -10 44 0c38 22 35 92 35 150v128
c0 46 4 128 -34 150c-8 5 -22 7 -37 -1c-47 -29 -57 -126 -58 -149l-40 -2l17 450h125c10 7 38 36 38 36z" />
    <glyph glyph-name="six" unicode="6" horiz-adv-x="363" 
d="M336 557l-49 -6l1 43c0 30 11 134 -23 155c-7 4 -17 8 -29 0c-30 -19 -33 -136 -33 -159l-3 -144c11 31 28 52 59 57c22 3 46 -7 68 -30c72 -81 69 -251 44 -351c-10 -46 -36 -110 -92 -131c-24 -7 -54 -6 -82 14c-77 60 -89 191 -85 319c2 73 4 117 11 189
c3 37 10 93 10 93c6 49 28 154 92 183c19 8 45 8 68 -7c44 -27 51 -85 53 -125c1 -28 -1 -66 -10 -100zM197 243v-56c0 -43 2 -130 37 -153c8 -5 27 -5 34 -1c33 19 34 91 34 135c0 0 1 51 1 77c0 27 -1 81 -1 81c0 42 -2 109 -30 125c-9 7 -21 5 -31 -2
c-48 -33 -44 -158 -44 -206z" />
    <glyph glyph-name="seven" unicode="7" horiz-adv-x="362" 
d="M397 779c-106 -291 -144 -433 -117 -779h-90c-19 256 49 485 138 725h-128l-1 -23c-4 -68 -20 -152 -58 -236h-7v313h263z" />
    <glyph glyph-name="eight" unicode="8" horiz-adv-x="361" 
d="M296 426c84 -95 106 -207 84 -299c-12 -47 -44 -109 -100 -131c-30 -12 -67 -9 -96 10c-57 38 -79 109 -80 165c-4 79 20 138 106 228c-82 99 -93 210 -55 305c17 43 46 79 87 85c30 4 63 -9 91 -46c44 -61 43 -162 13 -234c-12 -27 -29 -59 -50 -83zM296 509
c19 47 23 179 -12 221c-15 17 -30 20 -40 18c-20 -4 -33 -25 -39 -48c-24 -77 -12 -171 59 -244c9 11 21 26 32 53zM178 250c-9 -43 -10 -162 27 -199c14 -15 33 -19 50 -16c27 7 42 32 49 57c19 62 13 189 -63 276c-39 -47 -56 -93 -63 -118z" />
    <glyph glyph-name="nine" unicode="9" horiz-adv-x="363" 
d="M153 225l49 7l-1 -44c0 -30 -11 -134 23 -155c7 -4 17 -7 29 0c30 19 33 137 33 159l3 144c-12 -31 -29 -52 -60 -56c-21 -4 -45 6 -67 29c-72 82 -69 251 -45 352c11 46 37 110 93 130c24 7 54 6 81 -14c78 -60 90 -191 86 -319c-2 -73 -5 -116 -11 -189
c-3 -36 -11 -93 -11 -93c-5 -49 -27 -154 -91 -182c-20 -9 -45 -9 -69 6c-43 28 -50 85 -52 125c-1 29 1 66 10 100zM291 539v57c0 42 -1 130 -36 152c-8 5 -28 5 -34 1c-33 -19 -33 -91 -33 -134c0 0 -1 -54 -1 -80s1 -77 1 -77c0 -43 1 -111 29 -127c9 -7 21 -4 31 2
c48 33 43 158 43 206z" />
    <glyph glyph-name="colon" unicode=":" horiz-adv-x="199" 
d="M133 104h66v-104h-66v104zM133 572h66v-103h-66v103z" />
    <glyph glyph-name="semicolon" unicode=";" horiz-adv-x="210" 
d="M145 572h65v-103h-65v103zM210 115v-61c0 -104 -24 -198 -102 -203v8c13 2 22 12 29 20c5 8 13 19 19 40c3 13 6 53 5 78l-28 3v115h77z" />
    <glyph glyph-name="less" unicode="&#x3c;" horiz-adv-x="567" 
d="M581 469l-384 -157l384 -157v-78l-475 200v69l475 200v-77z" />
    <glyph glyph-name="equal" unicode="=" horiz-adv-x="507" 
d="M94 469h457v-63h-457v63zM95 218h456v-60h-456v60z" />
    <glyph glyph-name="greater" unicode="&#x3e;" horiz-adv-x="567" 
d="M585 276l-474 -200v78l380 155l-380 158v78l474 -200v-69z" />
    <glyph glyph-name="question" unicode="?" horiz-adv-x="261" 
d="M192 170h-27l-1 39c0 87 -7 109 20 183l15 41c22 62 54 246 17 295c-11 13 -21 18 -31 16c-12 -2 -24 -16 -32 -40c-25 -65 -14 -169 -3 -235l-39 -24c-22 82 -35 239 26 310c18 20 42 33 66 29c30 -3 55 -31 71 -63c48 -95 31 -213 -27 -329l-21 -41
c-37 -76 -31 -102 -34 -181zM145 115h71v-115h-71v115z" />
    <glyph glyph-name="at" unicode="@" horiz-adv-x="856" 
d="M535 172c-48 -66 -93 -90 -157 -83c-44 3 -85 24 -108 74c-28 61 -4 172 36 233c47 71 107 109 174 106c32 -3 70 -20 89 -57c4 -6 6 -13 12 -34l21 77h74l-51 -190c-8 -29 -37 -104 -8 -135c14 -13 37 -17 63 -13c53 10 91 55 114 114c25 66 25 191 -27 262
c-72 99 -216 125 -295 120c-118 -8 -232 -57 -310 -196c-49 -96 -61 -247 0 -355c63 -115 191 -159 289 -165c104 -5 204 20 325 93l22 -33c-168 -112 -364 -134 -511 -69c-141 64 -206 162 -223 295c-14 104 17 272 145 373c125 102 320 115 439 76
c107 -39 178 -121 200 -223c19 -79 5 -220 -79 -299c-41 -42 -116 -63 -159 -51c-41 9 -61 30 -75 80zM396 391c-37 -58 -70 -160 -49 -211c8 -23 29 -37 48 -42c27 -5 58 6 82 30c47 43 84 168 77 217c-5 28 -18 47 -43 58c-22 11 -47 8 -69 -4c-17 -11 -32 -28 -46 -48z
" />
    <glyph glyph-name="A" unicode="A" horiz-adv-x="416" 
d="M203 788h147l-35 -51l99 -688l56 -49h-185l53 51l-24 165c-30 -10 -82 -13 -104 1l-25 -169l50 -48h-158l55 49l106 692zM220 274c6 -18 87 -15 85 2l-41 290z" />
    <glyph glyph-name="B" unicode="B" horiz-adv-x="391" 
d="M78 788h90c76 0 151 8 206 -73c38 -57 46 -150 22 -211c-19 -47 -45 -78 -89 -87c70 -23 100 -66 116 -135c15 -66 12 -153 -42 -223c-51 -66 -107 -59 -174 -59h-129l55 54v678zM220 439h37c33 0 57 22 66 48c17 40 17 176 -7 215c-25 40 -62 35 -96 35v-298zM220 50h50
c31 1 49 15 64 45c28 55 26 201 -7 256c-25 40 -73 40 -107 40v-341z" />
    <glyph glyph-name="C" unicode="C" horiz-adv-x="332" 
d="M319 729l26 54h8v-297h-7c-7 11 -26 72 -39 118c-9 35 -17 73 -24 94c-2 7 -9 23 -12 31c-4 8 -16 27 -28 27s-20 1 -30 -14c-4 -7 -10 -15 -14 -31c-3 -9 -9 -35 -10 -63c0 0 -8 -102 -10 -165c-4 -114 -1 -294 -1 -294c0 -27 -3 -131 45 -159c12 -7 27 -9 44 2
c59 34 60 191 62 249l1 36l23 -5c12 -67 22 -250 -62 -308c-26 -18 -69 -19 -96 -4c-105 62 -106 248 -102 415l1 45c2 80 36 286 118 328c14 7 36 7 58 -8c20 -13 34 -30 49 -51z" />
    <glyph glyph-name="D" unicode="D" horiz-adv-x="402" 
d="M220 50h6c34 0 51 -1 69 9c47 27 55 102 55 153c0 0 3 125 3 204c0 62 -3 158 -3 158c-1 103 -20 167 -130 165v-689zM78 0l55 54v678l-55 56h90c92 0 158 2 211 -93c79 -140 90 -469 3 -610c-58 -94 -147 -85 -222 -85h-82z" />
    <glyph glyph-name="E" unicode="E" horiz-adv-x="361" 
d="M235 0h-157l55 54v678l-55 56h323v-252c-45 72 -72 196 -72 196h-109v-301h60c12 35 46 107 46 107h5v-277h-5c-28 60 -44 124 -45 132h-61v-341h116c30 122 47 157 84 218v-270h-185z" />
    <glyph glyph-name="F" unicode="F" horiz-adv-x="361" 
d="M78 0l55 54v678l-55 56h323v-252c-45 72 -72 196 -72 196h-109v-301h60c12 35 46 107 46 107h5v-277h-5c-28 60 -44 124 -45 132h-61v-339l55 -54h-197z" />
    <glyph glyph-name="G" unicode="G" horiz-adv-x="387" 
d="M441 385l-54 -47v-338h-9l-29 55c-21 -34 -48 -60 -89 -65c-27 -3 -59 5 -84 29c-84 81 -86 319 -83 400l1 42c2 80 36 285 118 327c14 7 36 7 58 -8c20 -13 34 -30 49 -51l26 54h8v-297h-7c-7 11 -26 72 -39 118c-9 35 -17 73 -24 94c-2 7 -9 23 -12 31
c-4 8 -16 27 -28 27s-20 1 -30 -14c-4 -7 -10 -15 -14 -31c-3 -9 -9 -35 -10 -63l-8 -110c-6 -139 0 -354 0 -354c0 -2 0 -127 45 -152c13 -6 30 -7 45 2c37 24 33 121 33 170v134l-53 47h190z" />
    <glyph glyph-name="H" unicode="H" horiz-adv-x="444" 
d="M358 386c-53 -18 -101 -14 -138 0v-332l55 -54h-197l55 54v679l-55 55h197l-55 -55v-284c38 -22 91 -19 138 -1v285l-56 55h197l-55 -55v-679l55 -54h-197l56 54v332z" />
    <glyph glyph-name="I" unicode="I" horiz-adv-x="220" 
d="M220 54l55 -54h-197l55 54v679l-55 55h197l-55 -55v-679z" />
    <glyph glyph-name="J" unicode="J" horiz-adv-x="304" 
d="M218 733l-56 55h198l-56 -55v-552c0 -36 1 -134 -59 -175c-24 -17 -64 -20 -86 -11c-34 12 -52 36 -62 73c-13 47 -2 149 10 202l57 19l-5 -73c-1 -20 -13 -153 17 -173c5 -4 15 -7 26 2c17 13 16 48 16 98v590z" />
    <glyph glyph-name="K" unicode="K" horiz-adv-x="412" 
d="M220 54l55 -54h-197l55 54v679l-55 55h197l-55 -55v-299l114 301l-31 53h146l-55 -54l-119 -294l137 -372l57 -68h-176l40 53l-113 300v-299z" />
    <glyph glyph-name="L" unicode="L" horiz-adv-x="365" 
d="M78 0l55 54v679l-55 55h197l-55 -55v-681h106c29 122 46 157 84 218v-270h-332z" />
    <glyph glyph-name="M" unicode="M" horiz-adv-x="472" 
d="M251 788l49 -468l48 468h179l-55 -55v-679l55 -54h-197l55 54v664l-72 -718h-40l-79 718v-664l56 -54h-172l55 54v679l-55 55h173z" />
    <glyph glyph-name="N" unicode="N" horiz-adv-x="402" 
d="M342 733l-56 55h172l-56 -55v-733h-43l-165 591v-537l56 -54h-172l55 54v679l-55 55h145l119 -432v377z" />
    <glyph glyph-name="O" unicode="O" horiz-adv-x="330" 
d="M215 789c14 6 34 5 53 -8c95 -69 102 -377 102 -449c0 -62 -21 -275 -109 -332c-16 -11 -38 -14 -58 -5c-62 27 -93 166 -98 197c-14 69 -45 538 110 597zM182 562c0 0 -4 -105 -4 -174c0 -86 4 -220 4 -220c0 -32 7 -114 33 -131c8 -6 18 -5 24 -2c32 18 35 107 35 140
c0 0 5 129 5 212c0 91 -5 232 -5 232c0 44 -7 114 -30 129c-7 4 -15 4 -23 0c-31 -17 -39 -118 -39 -186z" />
    <glyph glyph-name="P" unicode="P" horiz-adv-x="385" 
d="M220 406h54c28 0 45 18 57 42c20 42 19 204 -7 248c-29 48 -61 43 -104 43v-333zM172 788c53 0 151 8 208 -70c49 -67 55 -178 34 -244c-14 -44 -42 -92 -94 -109c-20 -6 -78 -9 -100 -9v-302l55 -54h-197l55 54v679l-55 55h94z" />
    <glyph glyph-name="Q" unicode="Q" horiz-adv-x="330" 
d="M182 562c0 0 -3 -113 -3 -184c0 -82 3 -210 3 -210c0 -32 7 -117 33 -134c8 -6 18 -5 24 -2c32 18 35 110 35 143c0 0 5 129 5 212c0 91 -5 232 -5 232c0 44 -7 114 -30 129c-7 4 -15 4 -23 0c-31 -17 -39 -118 -39 -186zM237 -68c22 -2 31 -4 46 -10
c12 -5 31 -22 45 -17c15 6 22 23 26 51c0 3 4 26 4 35h25c0 -27 -1 -112 -33 -137c-11 -10 -23 -15 -43 -11c-11 2 -20 5 -33 18c-11 12 -8 14 -30 27c-26 6 -31 -20 -37 -37h-30l27 140c-62 28 -94 170 -99 201c-14 69 -45 538 110 597c14 6 34 5 53 -8
c95 -69 102 -377 102 -449c0 -62 -21 -279 -109 -335c-4 -3 -9 -6 -14 -8z" />
    <glyph glyph-name="R" unicode="R" horiz-adv-x="393" 
d="M220 449h43c26 0 45 13 57 38c14 30 18 187 -4 223c-20 32 -50 30 -89 30h-7v-291zM220 54l55 -54h-197l55 54v679l-55 55h94c53 0 167 9 215 -85c28 -53 35 -174 -9 -234c-26 -36 -55 -45 -87 -50c86 -36 93 -143 99 -215l6 -89c2 -33 5 -46 7 -53c5 -16 21 -46 35 -51
v-11h-93c-18 46 -23 74 -25 127l-5 128c-1 37 1 119 -46 141c-4 2 -18 4 -25 4h-24v-346z" />
    <glyph glyph-name="S" unicode="S" horiz-adv-x="321" 
d="M286 734l27 48h8v-279h-9c-9 12 -29 74 -42 126c-12 45 -14 100 -51 115c-10 3 -20 3 -30 -4c-25 -17 -29 -90 -29 -114c0 -54 10 -109 83 -166l14 -11c111 -85 117 -199 106 -285c-7 -46 -25 -135 -96 -166c-24 -11 -52 -13 -82 9c-22 15 -37 35 -48 60l-32 -67h-11
l-2 305h12c25 -67 27 -72 41 -123c16 -59 23 -125 76 -141c12 -5 26 -4 42 11c40 39 29 159 21 196c-21 92 -61 78 -147 185c-59 74 -59 206 -20 291c17 37 42 64 79 68c39 3 59 -13 90 -58z" />
    <glyph glyph-name="T" unicode="T" horiz-adv-x="374" 
d="M419 788v-284c-47 74 -58 174 -65 238h-55v-688l55 -54h-197l55 54v688h-55c-7 -64 -18 -164 -65 -238v284h327z" />
    <glyph glyph-name="U" unicode="U" horiz-adv-x="410" 
d="M410 168c0 -46 4 -124 -64 -164c-32 -18 -109 -20 -146 3c-72 44 -67 100 -67 172v554l-55 55h197l-55 -55v-544c0 -52 -5 -121 33 -143c17 -10 43 -10 61 1c37 23 35 93 35 123v563l-56 55h172l-55 -55v-565z" />
    <glyph glyph-name="V" unicode="V" horiz-adv-x="427" 
d="M365 733l-49 55h165l-55 -55l-102 -679l53 -54h-195l54 54l-91 679l-55 55h192l-56 -55l62 -508z" />
    <glyph glyph-name="W" unicode="W" horiz-adv-x="608" 
d="M429 47l-62 457l-59 -457l44 -47h-163l47 47l-99 686l-56 55h192l-55 -55l61 -459l65 460l-55 54h183l-58 -53l61 -461l68 459l-49 55h166l-56 -55l-100 -686l43 -47h-165z" />
    <glyph glyph-name="X" unicode="X" horiz-adv-x="416" 
d="M416 54l56 -54h-192l54 52l-76 252l-58 -256l52 -48h-177l63 54l93 357l-101 322l-55 55h192l-56 -55l57 -196l56 202l-41 49h155l-57 -55l-83 -289z" />
    <glyph glyph-name="Y" unicode="Y" horiz-adv-x="406" 
d="M228 350l-85 383l-55 55h187l-55 -55l68 -304l58 310l-42 49h155l-57 -55l-87 -418v-261l55 -54h-197l55 54v296z" />
    <glyph glyph-name="Z" unicode="Z" horiz-adv-x="361" 
d="M133 788h283l-241 -731h140c9 50 37 195 86 257v-314h-325l243 739h-111c-3 -15 -36 -180 -75 -243v292z" />
    <glyph glyph-name="bracketleft" unicode="[" horiz-adv-x="368" 
d="M368 800v-49h-176v-868h176v-49h-235v966h235z" />
    <glyph glyph-name="backslash" unicode="\" horiz-adv-x="431" 
d="M83 729l344 -802h-43l-341 802h40z" />
    <glyph glyph-name="bracketright" unicode="]" horiz-adv-x="368" 
d="M368 800v-966h-235v49h176v868h-176v49h235z" />
    <glyph glyph-name="asciicircum" unicode="^" horiz-adv-x="359" 
d="M210 739h71l118 -149h-67l-87 107l-87 -107h-66z" />
    <glyph glyph-name="underscore" unicode="_" horiz-adv-x="456" 
d="M555 -153h-583v41h583v-41z" />
    <glyph glyph-name="grave" unicode="`" horiz-adv-x="249" 
d="M92 740h79l118 -149h-52z" />
    <glyph glyph-name="a" unicode="a" horiz-adv-x="292" 
d="M320 31c10 1 16 11 19 18c5 9 6 28 6 28h9c6 -7 7 -27 6 -34c-4 -21 -9 -31 -17 -39c-12 -10 -28 -16 -46 -13c-29 7 -42 27 -53 61c-8 -26 -17 -51 -49 -59c-18 -5 -39 0 -57 16c-43 36 -50 149 -46 188c4 36 15 130 70 161c6 3 51 29 76 37v132c-4 10 -16 23 -30 24
c-8 1 -20 -2 -32 -15c-20 -25 -12 -107 -11 -119l-36 -13c-13 43 -21 124 26 164c26 21 70 23 99 10c57 -24 51 -88 51 -140v-356c0 -6 -1 -52 15 -51zM181 318c-22 -26 -20 -223 -15 -252c5 -21 15 -33 22 -36c8 -4 18 1 24 5c27 19 24 57 24 128v184
c-11 -3 -41 -14 -55 -29z" />
    <glyph glyph-name="b" unicode="b" horiz-adv-x="304" 
d="M189 402v-215c0 -51 -1 -134 34 -158c8 -7 14 -8 21 -3c21 11 28 96 28 134c0 0 2 80 2 131s-2 129 -2 129c0 43 -4 120 -29 132c-8 4 -17 1 -27 -10c-21 -22 -27 -96 -27 -140zM189 525c12 36 21 59 47 62c14 2 31 -7 48 -30c71 -94 77 -367 32 -480
c-12 -30 -39 -80 -71 -86c-12 -2 -28 5 -48 28c-13 17 -19 38 -26 59l-39 -78h-12v736l-53 47l122 9v-267z" />
    <glyph glyph-name="c" unicode="c" horiz-adv-x="264" 
d="M289 380l-45 -17c3 24 17 164 -15 189c-7 5 -16 8 -24 3c-23 -14 -31 -96 -32 -140l-5 -226c-2 -60 0 -130 33 -154c4 -2 15 -7 28 -1c19 9 26 33 30 59c8 44 11 99 11 128h29c6 -46 12 -172 -41 -216c-20 -16 -46 -18 -68 -10c-53 17 -78 84 -90 130
c-23 94 -6 353 71 435c19 22 38 30 58 26c26 -4 45 -31 57 -60c12 -33 14 -92 3 -146z" />
    <glyph glyph-name="d" unicode="d" horiz-adv-x="304" 
d="M317 792v-746l35 -46h-104v69c-8 -27 -21 -70 -54 -78c-13 -2 -30 3 -48 24c-77 87 -60 371 -33 460c4 15 32 99 73 110c37 9 58 -31 62 -49v200l-53 47zM165 430v-273c0 -33 6 -112 25 -126c12 -9 14 -5 23 0c32 20 35 124 35 172v228c0 42 1 109 -33 121
c-37 13 -50 -65 -50 -122z" />
    <glyph glyph-name="e" unicode="e" horiz-adv-x="270" 
d="M297 300h-132v-71c0 -50 -4 -176 36 -197c8 -5 19 -7 32 1c40 27 42 184 42 203h30c6 -43 13 -183 -45 -231c-17 -14 -48 -19 -71 -11c-49 16 -72 72 -83 117c-28 104 -20 362 57 449c15 17 32 29 53 26c23 -3 42 -30 54 -58c19 -45 34 -161 27 -228zM170 339h66
c1 19 14 189 -15 210c-8 6 -15 7 -24 2c-32 -21 -28 -191 -27 -212z" />
    <glyph glyph-name="f" unicode="f" 
d="M120 530l-38 46h36v18c0 41 5 134 58 169c18 12 45 17 67 9c25 -10 39 -30 45 -54c7 -23 8 -45 -1 -85l-44 -11c0 13 11 99 -12 117c-8 5 -15 7 -25 1c-18 -12 -15 -78 -15 -110v-54h49l-51 -47v-480l29 -49h-127l29 49v481z" />
    <glyph glyph-name="g" unicode="g" horiz-adv-x="331" 
d="M308 629h58l-70 -101c34 -86 40 -169 11 -251c-14 -37 -35 -77 -70 -89c-29 -10 -53 3 -74 21c-16 -22 -35 -41 -9 -60c10 -7 68 5 105 -5c49 -14 80 -65 90 -102c14 -48 11 -159 -40 -213c-36 -38 -84 -41 -113 -35c-55 12 -88 54 -102 106c-17 64 -5 106 54 177
c-33 27 -42 41 -47 62c-6 36 10 58 46 96c-34 69 -33 147 -22 202c6 35 35 130 85 147c26 8 44 -4 69 -28zM185 434c0 0 -1 -30 -1 -48c0 -19 1 -49 1 -49c0 -49 1 -104 21 -118c11 -7 19 -3 25 -1c25 15 24 82 25 129c0 0 1 31 1 48c0 16 -1 38 -1 38c0 61 2 104 -16 119
c-9 8 -17 7 -23 5c-30 -11 -31 -83 -32 -123zM150 -11c-4 -24 -5 -57 0 -84c7 -32 23 -63 54 -74c21 -7 44 -1 62 13c40 34 41 122 38 145c-5 34 -18 64 -53 78c-20 9 -63 12 -72 6c-7 -6 -25 -64 -29 -84z" />
    <glyph glyph-name="h" unicode="h" horiz-adv-x="331" 
d="M344 49l28 -49h-127l29 49v381c0 45 2 105 -20 116c-6 4 -17 7 -29 -1c-33 -21 -36 -121 -36 -157v-339l29 -49h-127l29 49v687l-53 47l122 9v-280c6 19 20 62 59 73c17 5 44 2 63 -12c34 -27 33 -94 33 -119v-405z" />
    <glyph glyph-name="i" unicode="i" 
d="M189 783v-106h-59v106h59zM120 530l-32 45l101 7v-533l29 -49h-127l29 49v481z" />
    <glyph glyph-name="j" unicode="j" 
d="M189 783v-106h-59v106h59zM120 530l-32 45l101 7v-615c0 -45 6 -116 -53 -156c-20 -13 -52 -16 -72 -6c-29 13 -41 40 -45 69c-4 22 2 53 11 79l37 6c0 -17 -8 -105 15 -122c7 -5 15 -7 24 0c17 11 14 71 14 100v593z" />
    <glyph glyph-name="k" unicode="k" horiz-adv-x="326" 
d="M189 49l29 -49h-127l29 49v687l-53 47l122 9v-457l94 195l-33 46h131l-48 -52l-85 -192l99 -283l38 -49h-141l30 44l-85 233v-228z" />
    <glyph glyph-name="l" unicode="l" 
d="M189 49l29 -49h-127l29 49v687l-53 47l122 9v-743z" />
    <glyph glyph-name="m" unicode="m" horiz-adv-x="475" 
d="M488 49l29 -49h-127l28 49v382c0 52 4 107 -19 118c-6 3 -18 7 -32 -5c-32 -25 -30 -103 -30 -145v-350l29 -49h-127l29 49v389c0 56 3 99 -16 109c-9 6 -19 8 -33 -1c-34 -22 -30 -97 -30 -138v-359l29 -49h-127l29 49v481l-32 45l91 6v-87c5 23 18 75 58 89
c18 6 43 5 61 -8c7 -5 32 -26 37 -57c4 25 16 53 51 65c20 6 43 5 64 -11c42 -31 38 -84 38 -130v-393z" />
    <glyph glyph-name="n" unicode="n" horiz-adv-x="324" 
d="M337 399v-350l29 -49h-127l29 49v389c0 56 3 99 -16 109c-9 6 -19 8 -33 -1c-34 -22 -30 -105 -30 -138v-359l29 -49h-127l29 49v481l-32 45l91 6v-87c5 23 18 75 58 89c18 6 44 5 61 -8c45 -33 39 -76 39 -176z" />
    <glyph glyph-name="o" unicode="o" horiz-adv-x="298" 
d="M181 -1c-73 56 -92 229 -89 314c4 112 33 226 95 265c18 12 36 12 54 0c62 -39 91 -153 95 -265c3 -85 -16 -258 -89 -314c-16 -12 -50 -12 -66 0zM170 178c0 -52 5 -130 33 -147c6 -3 15 -5 24 1c25 18 32 106 32 161c0 0 2 66 2 109c0 35 -2 90 -2 90
c0 55 -7 141 -32 159c-9 6 -18 4 -24 1c-28 -17 -33 -93 -33 -145c0 0 -2 -63 -2 -104c0 -49 2 -125 2 -125z" />
    <glyph glyph-name="p" unicode="p" horiz-adv-x="307" 
d="M199 503c-6 -22 -7 -46 -7 -65v-277c0 -51 3 -114 28 -130c9 -5 18 -3 24 0c26 17 23 121 23 138c0 0 2 81 2 132c0 54 -2 141 -2 141c0 63 -12 105 -29 112c-21 7 -34 -28 -39 -51zM189 -154l40 -49h-149l40 49v684l-32 45l96 7l3 -56c6 20 17 56 44 61
c14 2 32 -7 49 -28c88 -100 75 -364 44 -465c-9 -34 -34 -92 -73 -103c-13 -3 -29 2 -41 13c-9 10 -21 31 -21 31v-189z" />
    <glyph glyph-name="q" unicode="q" horiz-adv-x="306" 
d="M204 551c-17 -7 -29 -49 -29 -112c0 0 -1 -75 -1 -122c0 -59 1 -151 1 -151c0 -17 -3 -120 22 -137c7 -3 15 -6 25 0c25 16 28 79 28 130v275c0 20 -1 44 -7 65c-5 24 -18 59 -39 52zM319 -154l41 -49h-150l40 49v185c-15 -29 -33 -42 -57 -41c-24 3 -44 22 -62 56
c-58 112 -54 371 17 491c15 25 36 50 62 50c15 0 30 -12 45 -37c11 -21 19 -51 21 -57l29 83h14v-730z" />
    <glyph glyph-name="r" unicode="r" horiz-adv-x="253" 
d="M189 49l29 -49h-127l29 49v481l-32 45l91 6v-111s14 105 58 116c16 4 35 -3 49 -21c27 -36 22 -125 10 -179l-45 -15s18 80 12 130c-4 23 -11 59 -30 54c-34 -10 -44 -126 -44 -175v-331z" />
    <glyph glyph-name="s" unicode="s" horiz-adv-x="268" 
d="M240 544l16 32h9l2 -202h-11c-27 42 -44 171 -71 181c-8 3 -17 2 -26 -6c-18 -19 -21 -86 -15 -122c14 -79 67 -73 117 -137c46 -58 52 -161 30 -222c-11 -34 -31 -67 -70 -74c-45 -10 -62 9 -97 54l-18 -49h-8l-2 239h10c4 -12 24 -62 41 -112c16 -46 31 -92 47 -97
c9 -3 19 -2 31 9c27 27 25 100 17 132c-6 30 -18 55 -49 83c-35 33 -48 28 -77 74c-34 53 -34 154 -8 206c17 32 37 53 66 54c23 1 41 -11 66 -43z" />
    <glyph glyph-name="t" unicode="t" horiz-adv-x="197" 
d="M178 726h11v-150h63l-63 -69v-371c0 -52 -2 -87 16 -97c7 -4 18 -5 26 0c22 16 24 40 27 65h12c3 -38 3 -84 -33 -106c-19 -11 -52 -11 -76 3c-45 27 -41 87 -41 133v391h-43v9c54 54 84 131 101 192z" />
    <glyph glyph-name="u" unicode="u" horiz-adv-x="319" 
d="M332 46l35 -46h-98v64c-11 -31 -25 -62 -57 -71c-16 -6 -40 -2 -60 13c-37 27 -32 78 -32 131v393l-32 45l101 7v-434c0 -52 -1 -110 16 -116c8 -3 17 -5 29 3c33 24 29 114 29 152v343l-32 45l101 7v-536z" />
    <glyph glyph-name="v" unicode="v" horiz-adv-x="315" 
d="M232 190l39 328l-34 58h129l-34 -55l-69 -478l29 -43h-134l28 43l-79 484l-38 49h146l-39 -48z" />
    <glyph glyph-name="w" unicode="w" horiz-adv-x="475" 
d="M304 385l-49 -338l31 -47h-125l28 47l-77 480l-37 49h145l-39 -48l47 -338l48 332l-35 54h142l-38 -49l57 -352l41 342l-36 59h129l-34 -55l-71 -477l28 -44h-125l27 47z" />
    <glyph glyph-name="x" unicode="x" horiz-adv-x="315" 
d="M218 411l40 122l-26 43h118l-43 -45l-64 -199l85 -278l43 -54h-150l40 51l-52 172l-51 -178l39 -45h-131l43 55l76 245l-71 230l-35 46h132l-33 -42z" />
    <glyph glyph-name="y" unicode="y" horiz-adv-x="304" 
d="M228 -59c-7 -42 -17 -120 -72 -144c-17 -7 -45 -8 -66 6c-24 17 -29 38 -28 66c1 15 7 48 22 63l39 2c-3 -15 -10 -33 -12 -49c-2 -19 -6 -42 11 -45c11 -2 17 3 25 14c7 8 15 30 26 80c9 46 7 51 0 108l-69 488l-36 46h138l-37 -46l47 -360l49 357l-34 49h128l-33 -45z
" />
    <glyph glyph-name="z" unicode="z" horiz-adv-x="279" 
d="M343 576l-185 -538h97c10 50 27 108 66 181v-219h-248l188 544h-85s-24 -103 -56 -158v190h223z" />
    <glyph glyph-name="braceleft" unicode="{" horiz-adv-x="359" 
d="M397 813v-30c-108 -22 -136 -51 -136 -189v-84c0 -66 6 -117 -46 -164c-38 -33 -98 -49 -137 -59c135 -20 183 -20 183 -219v-82c0 -60 -5 -111 51 -156c27 -23 51 -33 85 -35v-30c-55 0 -112 10 -161 67c-42 48 -36 90 -36 164v83c0 55 5 109 -48 148
c-27 24 -56 29 -101 37v50c102 17 149 41 149 182v87c0 82 -6 122 51 180c35 35 97 49 146 50z" />
    <glyph glyph-name="bar" unicode="|" horiz-adv-x="116" 
d="M148 -122h-41v930h41v-930z" />
    <glyph glyph-name="braceright" unicode="}" horiz-adv-x="408" 
d="M260 763c58 -58 52 -98 52 -180v-87c0 -141 47 -165 147 -182v-50c-43 -8 -72 -13 -100 -37c-53 -39 -47 -93 -47 -148v-83c0 -74 5 -116 -37 -164c-49 -57 -105 -67 -161 -67v30c34 2 57 12 85 35c56 45 51 96 51 156v82c0 199 48 199 184 219c-40 10 -100 26 -137 59
c-54 47 -47 98 -47 164v84c0 138 -27 167 -136 189v30c49 -1 111 -15 146 -50z" />
    <glyph glyph-name="asciitilde" unicode="~" horiz-adv-x="354" 
d="M356 712h39c-8 -36 -18 -79 -58 -97c-46 -21 -67 8 -151 36c-22 6 -42 10 -58 -3c-16 -12 -20 -31 -24 -44h-39c9 41 20 79 65 97c55 22 99 -23 155 -38c20 -6 36 -6 51 7c8 8 13 16 20 42z" />
    <glyph glyph-name="Adieresis" unicode="&#xc4;" horiz-adv-x="416" 
d="M156 972h69v-109h-69v109zM331 972h66v-109h-66v109zM207 788h147l-35 -51l99 -688l56 -49h-185l54 51l-25 165c-30 -10 -82 -13 -103 1l-26 -169l50 -48h-158l56 49l105 692zM224 274c7 -18 88 -15 85 2l-41 290z" />
    <glyph glyph-name="Aring" unicode="&#xc5;" horiz-adv-x="416" 
d="M252 1131c30 6 70 1 101 -30c35 -37 39 -102 30 -143c-7 -37 -30 -70 -70 -86c-30 -12 -72 -12 -104 12c-41 30 -52 79 -51 120c2 33 13 87 60 114c7 6 20 10 34 13zM215 1078c-26 -32 -26 -90 -18 -121c8 -30 25 -51 50 -61c23 -8 52 -2 69 9c34 22 38 63 38 92
c1 38 -7 75 -38 97c-19 15 -45 16 -64 10c-14 -5 -27 -14 -37 -26zM203 788h147l-35 -51l99 -688l56 -49h-185l53 51l-24 165c-30 -10 -82 -13 -104 1l-25 -169l50 -48h-158l55 49l106 692zM220 274c6 -18 87 -15 85 2l-41 290z" />
    <glyph glyph-name="Ccedilla" unicode="&#xc7;" horiz-adv-x="332" 
d="M218 -9c-9 3 -16 5 -23 9c-105 62 -106 248 -102 415l1 45c2 80 36 286 118 328c14 7 36 7 58 -8c20 -13 34 -30 49 -51l26 54h8v-297h-7c-7 11 -26 72 -39 118c-9 35 -17 73 -24 94c-2 7 -9 23 -12 31c-4 8 -16 27 -28 27s-20 1 -30 -14c-4 -7 -10 -15 -14 -31
c-3 -9 -9 -35 -10 -63c0 0 -8 -102 -10 -165c-4 -114 -1 -294 -1 -294c0 -27 -3 -131 45 -159c12 -7 27 -9 44 2c59 34 60 191 62 249l1 36l23 -5c12 -67 22 -250 -62 -308c-11 -7 -26 -13 -41 -14l-28 -50c25 2 62 1 82 -26c10 -14 15 -34 11 -53c-6 -24 -18 -40 -43 -52
c-40 -21 -94 -14 -149 11l17 28c32 -17 65 -25 86 -9c11 8 17 19 16 34s-4 21 -18 30c-11 6 -22 5 -47 -2l-9 13z" />
    <glyph glyph-name="Eacute" unicode="&#xc9;" horiz-adv-x="361" 
d="M272 1013h78l-145 -150h-50zM235 0h-157l55 54v678l-55 56h323v-252c-45 72 -72 196 -72 196h-109v-301h60c12 35 46 107 46 107h5v-277h-5c-28 60 -44 124 -45 132h-61v-341h116c30 122 47 157 84 218v-270h-185z" />
    <glyph glyph-name="Ntilde" unicode="&#xd1;" horiz-adv-x="402" 
d="M393 981h38c-7 -36 -18 -79 -57 -97c-46 -21 -68 8 -152 36c-21 6 -42 10 -58 -3c-16 -12 -20 -31 -25 -44h-38c9 41 21 79 65 97c55 21 100 -23 155 -38c21 -6 37 -6 51 7c8 8 13 16 21 42zM342 733l-56 55h172l-56 -55v-733h-43l-165 591v-537l56 -54h-172l55 54v679
l-55 55h145l119 -432v377z" />
    <glyph glyph-name="Odieresis" unicode="&#xd6;" horiz-adv-x="330" 
d="M109 979h68v-109h-68v109zM283 979h66v-109h-66v109zM215 789c14 6 34 5 53 -8c95 -69 102 -377 102 -449c0 -62 -21 -275 -109 -332c-16 -11 -38 -14 -58 -5c-62 27 -93 166 -98 197c-14 69 -45 538 110 597zM182 562c0 0 -4 -105 -4 -174c0 -86 4 -220 4 -220
c0 -32 7 -114 33 -131c8 -6 18 -5 24 -2c32 18 35 107 35 140c0 0 5 129 5 212c0 91 -5 232 -5 232c0 44 -7 114 -30 129c-7 4 -15 4 -23 0c-31 -17 -39 -118 -39 -186z" />
    <glyph glyph-name="Udieresis" unicode="&#xdc;" horiz-adv-x="410" 
d="M144 968h69v-109h-69v109zM319 968h66v-109h-66v109zM410 168c0 -46 4 -124 -64 -164c-32 -18 -109 -20 -146 3c-72 44 -67 100 -67 172v554l-55 55h197l-55 -55v-544c0 -52 -5 -121 33 -143c17 -10 43 -10 61 1c37 23 35 93 35 123v563l-56 55h172l-55 -55v-565z" />
    <glyph glyph-name="aacute" unicode="&#xe1;" horiz-adv-x="280" 
d="M232 784h77l-145 -149h-49zM307 31c10 1 16 11 20 18c4 9 5 28 5 28h10c5 -7 6 -27 5 -34c-3 -21 -9 -31 -17 -39c-12 -10 -28 -16 -46 -13c-29 7 -42 27 -52 61c-9 -26 -17 -51 -50 -59c-18 -5 -39 0 -57 16c-43 36 -50 149 -46 188c4 36 15 130 70 161c6 3 52 29 76 37
v132c-4 10 -16 23 -30 24c-8 1 -20 -2 -32 -15c-20 -25 -11 -107 -10 -119l-37 -13c-12 43 -21 124 26 164c27 21 70 23 99 10c57 -24 51 -88 51 -140v-356c0 -6 -1 -52 15 -51zM169 318c-23 -26 -21 -223 -15 -252c4 -21 15 -33 21 -36c9 -4 18 1 25 5c26 19 23 57 23 128
v184c-11 -3 -41 -14 -54 -29z" />
    <glyph glyph-name="agrave" unicode="&#xe0;" horiz-adv-x="280" 
d="M114 783h79l119 -148h-53l-144 144zM307 31c10 1 16 11 20 18c4 9 5 28 5 28h10c5 -7 6 -27 5 -34c-3 -21 -9 -31 -17 -39c-12 -10 -28 -16 -46 -13c-29 7 -42 27 -52 61c-9 -26 -17 -51 -50 -59c-18 -5 -39 0 -57 16c-43 36 -50 149 -46 188c4 36 15 130 70 161
c6 3 52 29 76 37v132c-4 10 -16 23 -30 24c-8 1 -20 -2 -32 -15c-20 -25 -11 -107 -10 -119l-37 -13c-12 43 -21 124 26 164c27 21 70 23 99 10c57 -24 51 -88 51 -140v-356c0 -6 -1 -52 15 -51zM169 318c-23 -26 -21 -223 -15 -252c4 -21 15 -33 21 -36c9 -4 18 1 25 5
c26 19 23 57 23 128v184c-11 -3 -41 -14 -54 -29z" />
    <glyph glyph-name="acircumflex" unicode="&#xe2;" horiz-adv-x="280" 
d="M177 783h71l118 -148h-67l-87 107l-87 -107h-66zM307 31c10 1 16 11 20 18c4 9 5 28 5 28h10c5 -7 6 -27 5 -34c-3 -21 -9 -31 -17 -39c-12 -10 -28 -16 -46 -13c-29 7 -42 27 -52 61c-9 -26 -17 -51 -50 -59c-18 -5 -39 0 -57 16c-43 36 -50 149 -46 188
c4 36 15 130 70 161c6 3 52 29 76 37v132c-4 10 -16 23 -30 24c-8 1 -20 -2 -32 -15c-20 -25 -11 -107 -10 -119l-37 -13c-12 43 -21 124 26 164c27 21 70 23 99 10c57 -24 51 -88 51 -140v-356c0 -6 -1 -52 15 -51zM169 318c-23 -26 -21 -223 -15 -252c4 -21 15 -33 21 -36
c9 -4 18 1 25 5c26 19 23 57 23 128v184c-11 -3 -41 -14 -54 -29z" />
    <glyph glyph-name="adieresis" unicode="&#xe4;" horiz-adv-x="280" 
d="M92 744h68v-109h-68v109zM266 744h66v-109h-66v109zM307 31c10 1 16 11 20 18c4 9 5 28 5 28h10c5 -7 6 -27 5 -34c-3 -21 -9 -31 -17 -39c-12 -10 -28 -16 -46 -13c-29 7 -42 27 -52 61c-9 -26 -17 -51 -50 -59c-18 -5 -39 0 -57 16c-43 36 -50 149 -46 188
c4 36 15 130 70 161c6 3 52 29 76 37v132c-4 10 -16 23 -30 24c-8 1 -20 -2 -32 -15c-20 -25 -11 -107 -10 -119l-37 -13c-12 43 -21 124 26 164c27 21 70 23 99 10c57 -24 51 -88 51 -140v-356c0 -6 -1 -52 15 -51zM169 318c-23 -26 -21 -223 -15 -252c4 -21 15 -33 21 -36
c9 -4 18 1 25 5c26 19 23 57 23 128v184c-11 -3 -41 -14 -54 -29z" />
    <glyph glyph-name="atilde" unicode="&#xe3;" horiz-adv-x="280" 
d="M339 744h39c-7 -36 -18 -79 -58 -97c-46 -21 -67 8 -151 36c-22 6 -42 10 -58 -3c-16 -12 -20 -31 -26 -44h-38c10 41 21 79 66 97c55 22 99 -23 155 -38c20 -6 36 -6 51 7c8 8 13 16 20 42zM307 31c10 1 16 11 20 18c4 9 5 28 5 28h10c5 -7 6 -27 5 -34
c-3 -21 -9 -31 -17 -39c-12 -10 -28 -16 -46 -13c-29 7 -42 27 -52 61c-9 -26 -17 -51 -50 -59c-18 -5 -39 0 -57 16c-43 36 -50 149 -46 188c4 36 15 130 70 161c6 3 52 29 76 37v132c-4 10 -16 23 -30 24c-8 1 -20 -2 -32 -15c-20 -25 -11 -107 -10 -119l-37 -13
c-12 43 -21 124 26 164c27 21 70 23 99 10c57 -24 51 -88 51 -140v-356c0 -6 -1 -52 15 -51zM169 318c-23 -26 -21 -223 -15 -252c4 -21 15 -33 21 -36c9 -4 18 1 25 5c26 19 23 57 23 128v184c-11 -3 -41 -14 -54 -29z" />
    <glyph glyph-name="aring" unicode="&#xe5;" horiz-adv-x="280" 
d="M191 903c30 5 70 1 101 -30c36 -37 39 -102 30 -143c-8 -37 -30 -70 -69 -86c-31 -12 -73 -12 -105 11c-41 30 -52 79 -50 120c1 34 12 87 59 115c7 5 19 10 34 13zM154 850c-26 -32 -26 -90 -18 -121c8 -30 25 -51 50 -61c23 -8 52 -2 69 9c34 22 38 63 38 91
c2 39 -7 75 -38 98c-19 14 -45 16 -64 9c-14 -4 -27 -14 -37 -25zM307 31c10 1 16 11 20 18c4 9 5 28 5 28h10c5 -7 6 -27 5 -34c-3 -21 -9 -31 -17 -39c-12 -10 -28 -16 -46 -13c-29 7 -42 27 -52 61c-9 -26 -17 -51 -50 -59c-18 -5 -39 0 -57 16c-43 36 -50 149 -46 188
c4 36 15 130 70 161c6 3 52 29 76 37v132c-4 10 -16 23 -30 24c-8 1 -20 -2 -32 -15c-20 -25 -11 -107 -10 -119l-37 -13c-12 43 -21 124 26 164c27 21 70 23 99 10c57 -24 51 -88 51 -140v-356c0 -6 -1 -52 15 -51zM169 318c-23 -26 -21 -223 -15 -252c4 -21 15 -33 21 -36
c9 -4 18 1 25 5c26 19 23 57 23 128v184c-11 -3 -41 -14 -54 -29z" />
    <glyph glyph-name="ccedilla" unicode="&#xe7;" horiz-adv-x="264" 
d="M190 -5c-53 17 -78 84 -90 130c-23 94 -6 353 71 435c19 22 38 30 58 26c26 -4 45 -31 57 -60c12 -33 14 -92 3 -146l-45 -17c3 24 17 164 -15 189c-7 5 -16 8 -24 3c-23 -14 -31 -96 -32 -140l-5 -226c-2 -60 0 -130 33 -154c4 -2 15 -7 28 -1c19 9 26 33 30 59
c8 44 11 99 11 128h29c6 -46 12 -172 -41 -216c-11 -8 -24 -14 -37 -15l-25 -43c25 2 62 1 83 -27c9 -14 14 -33 10 -52c-5 -25 -18 -41 -42 -53c-41 -21 -94 -14 -150 11l17 29c32 -17 65 -26 87 -10c10 9 17 19 16 34s-6 21 -18 29c-11 8 -23 7 -47 -1l-10 13z" />
    <glyph glyph-name="eacute" unicode="&#xe9;" horiz-adv-x="233" 
d="M206 789h78l-145 -150h-49zM284 300h-131v-71c0 -50 -5 -176 35 -197c8 -5 19 -7 32 1c40 27 43 184 43 203h29c6 -43 13 -183 -44 -231c-17 -14 -48 -19 -72 -11c-49 16 -71 72 -83 117c-28 104 -19 362 57 449c15 17 32 29 53 26c23 -3 42 -30 54 -58
c19 -45 34 -161 27 -228zM157 339h66c1 19 14 189 -15 210c-7 6 -15 7 -23 2c-32 -21 -29 -191 -28 -212z" />
    <glyph glyph-name="egrave" unicode="&#xe8;" horiz-adv-x="233" 
d="M89 788h79l118 -149h-52l-144 144zM284 300h-131v-71c0 -50 -5 -176 35 -197c8 -5 19 -7 32 1c40 27 43 184 43 203h29c6 -43 13 -183 -44 -231c-17 -14 -48 -19 -72 -11c-49 16 -71 72 -83 117c-28 104 -19 362 57 449c15 17 32 29 53 26c23 -3 42 -30 54 -58
c19 -45 34 -161 27 -228zM157 339h66c1 19 14 189 -15 210c-7 6 -15 7 -23 2c-32 -21 -29 -191 -28 -212z" />
    <glyph glyph-name="ecircumflex" unicode="&#xea;" horiz-adv-x="233" 
d="M152 788h70l118 -149h-67l-85 107l-89 -107h-66zM284 300h-131v-71c0 -50 -5 -176 35 -197c8 -5 19 -7 32 1c40 27 43 184 43 203h29c6 -43 13 -183 -44 -231c-17 -14 -48 -19 -72 -11c-49 16 -71 72 -83 117c-28 104 -19 362 57 449c15 17 32 29 53 26
c23 -3 42 -30 54 -58c19 -45 34 -161 27 -228zM157 339h66c1 19 14 189 -15 210c-7 6 -15 7 -23 2c-32 -21 -29 -191 -28 -212z" />
    <glyph glyph-name="edieresis" unicode="&#xeb;" horiz-adv-x="233" 
d="M66 748h68v-109h-68v109zM239 748h67v-109h-67v109zM284 300h-131v-71c0 -50 -5 -176 35 -197c8 -5 19 -7 32 1c40 27 43 184 43 203h29c6 -43 13 -183 -44 -231c-17 -14 -48 -19 -72 -11c-49 16 -71 72 -83 117c-28 104 -19 362 57 449c15 17 32 29 53 26
c23 -3 42 -30 54 -58c19 -45 34 -161 27 -228zM157 339h66c1 19 14 189 -15 210c-7 6 -15 7 -23 2c-32 -21 -29 -191 -28 -212z" />
    <glyph glyph-name="iacute" unicode="&#xed;" 
d="M172 788h78l-145 -150h-51zM120 530l-32 45l101 7v-533l29 -49h-127l29 49v481z" />
    <glyph glyph-name="igrave" unicode="&#xec;" 
d="M54 787h79l119 -149h-52l-145 144zM120 530l-32 45l101 7v-533l29 -49h-127l29 49v481z" />
    <glyph glyph-name="icircumflex" unicode="&#xee;" 
d="M117 787h71l118 -149h-67l-86 107l-88 -107h-66zM120 530l-32 45l101 7v-533l29 -49h-127l29 49v481z" />
    <glyph glyph-name="idieresis" unicode="&#xef;" 
d="M31 747h69v-109h-69v109zM206 747h66v-109h-66v109zM120 530l-32 45l101 7v-533l29 -49h-127l29 49v481z" />
    <glyph glyph-name="ntilde" unicode="&#xf1;" horiz-adv-x="324" 
d="M355 747h39c-8 -36 -18 -79 -58 -97c-46 -20 -67 8 -151 36c-22 7 -42 10 -58 -3c-16 -12 -20 -31 -26 -44h-37c9 41 20 79 65 97c55 22 99 -23 155 -38c20 -5 36 -5 51 7c8 8 13 16 20 42zM337 399v-350l29 -49h-127l29 49v389c0 56 3 99 -16 109c-9 6 -19 8 -33 -1
c-34 -22 -30 -105 -30 -138v-359l29 -49h-127l29 49v481l-32 45l91 6v-87c5 23 18 75 58 89c18 6 44 5 61 -8c45 -33 39 -76 39 -176z" />
    <glyph glyph-name="oacute" unicode="&#xf3;" horiz-adv-x="271" 
d="M220 788h78l-145 -150h-51zM168 -1c-74 56 -93 229 -90 314c4 112 33 226 95 265c18 12 36 12 54 0c62 -39 91 -153 95 -265c4 -85 -16 -258 -89 -314c-16 -12 -49 -12 -65 0zM156 178c0 -52 5 -130 33 -147c6 -3 15 -5 24 1c25 18 32 106 32 161c0 0 3 66 3 109
c0 35 -3 90 -3 90c0 55 -7 141 -32 159c-9 6 -18 4 -24 1c-28 -17 -33 -93 -33 -145c0 0 -2 -63 -2 -104c0 -49 2 -125 2 -125z" />
    <glyph glyph-name="ograve" unicode="&#xf2;" horiz-adv-x="271" 
d="M102 787h79l119 -149h-52l-144 144zM168 -1c-74 56 -93 229 -90 314c4 112 33 226 95 265c18 12 36 12 54 0c62 -39 91 -153 95 -265c4 -85 -16 -258 -89 -314c-16 -12 -49 -12 -65 0zM156 178c0 -52 5 -130 33 -147c6 -3 15 -5 24 1c25 18 32 106 32 161c0 0 3 66 3 109
c0 35 -3 90 -3 90c0 55 -7 141 -32 159c-9 6 -18 4 -24 1c-28 -17 -33 -93 -33 -145c0 0 -2 -63 -2 -104c0 -49 2 -125 2 -125z" />
    <glyph glyph-name="ocircumflex" unicode="&#xf4;" horiz-adv-x="271" 
d="M165 787h71l118 -149h-67l-85 107l-89 -107h-66zM168 -1c-74 56 -93 229 -90 314c4 112 33 226 95 265c18 12 36 12 54 0c62 -39 91 -153 95 -265c4 -85 -16 -258 -89 -314c-16 -12 -49 -12 -65 0zM156 178c0 -52 5 -130 33 -147c6 -3 15 -5 24 1c25 18 32 106 32 161
c0 0 3 66 3 109c0 35 -3 90 -3 90c0 55 -7 141 -32 159c-9 6 -18 4 -24 1c-28 -17 -33 -93 -33 -145c0 0 -2 -63 -2 -104c0 -49 2 -125 2 -125z" />
    <glyph glyph-name="odieresis" unicode="&#xf6;" horiz-adv-x="271" 
d="M80 747h68v-109h-68v109zM253 747h67v-109h-67v109zM168 -1c-74 56 -93 229 -90 314c4 112 33 226 95 265c18 12 36 12 54 0c62 -39 91 -153 95 -265c4 -85 -16 -258 -89 -314c-16 -12 -49 -12 -65 0zM156 178c0 -52 5 -130 33 -147c6 -3 15 -5 24 1c25 18 32 106 32 161
c0 0 3 66 3 109c0 35 -3 90 -3 90c0 55 -7 141 -32 159c-9 6 -18 4 -24 1c-28 -17 -33 -93 -33 -145c0 0 -2 -63 -2 -104c0 -49 2 -125 2 -125z" />
    <glyph glyph-name="otilde" unicode="&#xf5;" horiz-adv-x="271" 
d="M328 747h38c-7 -36 -18 -79 -58 -97c-45 -20 -67 8 -151 36c-21 7 -42 10 -58 -3c-16 -12 -20 -31 -25 -44h-38c9 41 21 79 65 97c55 22 100 -23 155 -38c20 -5 36 -5 51 7c8 8 13 16 21 42zM168 -1c-74 56 -93 229 -90 314c4 112 33 226 95 265c18 12 36 12 54 0
c62 -39 91 -153 95 -265c4 -85 -16 -258 -89 -314c-16 -12 -49 -12 -65 0zM156 178c0 -52 5 -130 33 -147c6 -3 15 -5 24 1c25 18 32 106 32 161c0 0 3 66 3 109c0 35 -3 90 -3 90c0 55 -7 141 -32 159c-9 6 -18 4 -24 1c-28 -17 -33 -93 -33 -145c0 0 -2 -63 -2 -104
c0 -49 2 -125 2 -125z" />
    <glyph glyph-name="uacute" unicode="&#xfa;" horiz-adv-x="319" 
d="M244 789h78l-145 -150h-49zM332 46l35 -46h-98v64c-11 -31 -25 -62 -57 -71c-16 -6 -40 -2 -60 13c-37 27 -32 78 -32 131v393l-32 45l101 7v-434c0 -52 -1 -110 16 -116c8 -3 17 -5 29 3c33 24 29 114 29 152v343l-32 45l101 7v-536z" />
    <glyph glyph-name="ugrave" unicode="&#xf9;" horiz-adv-x="319" 
d="M127 788h79l118 -149h-52l-144 144zM332 46l35 -46h-98v64c-11 -31 -25 -62 -57 -71c-16 -6 -40 -2 -60 13c-37 27 -32 78 -32 131v393l-32 45l101 7v-434c0 -52 -1 -110 16 -116c8 -3 17 -5 29 3c33 24 29 114 29 152v343l-32 45l101 7v-536z" />
    <glyph glyph-name="ucircumflex" unicode="&#xfb;" horiz-adv-x="319" 
d="M190 788h70l119 -149h-67l-86 107l-88 -107h-68zM332 46l35 -46h-98v64c-11 -31 -25 -62 -57 -71c-16 -6 -40 -2 -60 13c-37 27 -32 78 -32 131v393l-32 45l101 7v-434c0 -52 -1 -110 16 -116c8 -3 17 -5 29 3c33 24 29 114 29 152v343l-32 45l101 7v-536z" />
    <glyph glyph-name="udieresis" unicode="&#xfc;" horiz-adv-x="319" 
d="M105 748h68v-109h-68v109zM277 748h68v-109h-68v109zM332 46l35 -46h-98v64c-11 -31 -25 -62 -57 -71c-16 -6 -40 -2 -60 13c-37 27 -32 78 -32 131v393l-32 45l101 7v-434c0 -52 -1 -110 16 -116c8 -3 17 -5 29 3c33 24 29 114 29 152v343l-32 45l101 7v-536z" />
    <glyph glyph-name="cent" unicode="&#xa2;" horiz-adv-x="270" 
d="M206 782h29v-70c76 -49 68 -142 61 -203l-47 -19v23c1 18 6 145 -18 165c-10 8 -19 6 -25 3c-28 -16 -34 -110 -34 -154v-195c0 -53 1 -144 37 -167c12 -7 22 -5 31 0c37 24 35 159 36 183h30c8 -52 5 -100 -1 -132c-9 -48 -22 -76 -70 -99v-117h-32v122
c-90 46 -106 152 -110 220c-7 83 6 316 113 374v66z" />
    <glyph glyph-name="sterling" unicode="&#xa3;" horiz-adv-x="440" 
d="M139 122c-29 -22 -34 -63 -11 -94c14 -18 47 -22 68 -6c24 17 35 47 38 75c-19 29 -69 46 -95 25zM321 792c39 3 59 -13 90 -58l27 48h8v-279h-10c-8 12 -28 74 -41 126c-12 45 -14 100 -51 115c-10 3 -21 3 -30 -4c-25 -17 -29 -77 -29 -114c0 -54 24 -157 30 -217h111
v-59h-103c1 -81 -4 -131 -19 -204c34 -29 108 -53 147 55h19c2 -124 -53 -213 -119 -213c-56 0 -72 60 -82 74c-8 -17 -14 -55 -56 -72c-32 -12 -67 -15 -95 5c-42 32 -35 102 -27 119c16 41 40 59 69 64c39 10 59 -2 79 -6c-6 61 -19 126 -39 178h-94v59h80
c-2 22 -10 106 -7 159c2 51 8 99 41 151c28 44 64 69 101 73z" />
    <glyph glyph-name="bullet" unicode="&#x2022;" horiz-adv-x="199" 
d="M133 572h66v-107h-66v107z" />
    <glyph glyph-name="acute" unicode="&#xb4;" horiz-adv-x="245" 
d="M208 741h78l-145 -150h-49z" />
    <glyph glyph-name="dieresis" unicode="&#xa8;" horiz-adv-x="374" 
d="M133 710h69v-109h-69v109zM306 710h68v-109h-68v109z" />
    <glyph glyph-name="infinity" unicode="&#x221e;" horiz-adv-x="304" 
d="M233 784h78l-146 -149h-49zM233 -59c-8 -42 -17 -120 -73 -144c-17 -7 -45 -8 -66 6c-24 17 -29 38 -28 66c1 15 8 48 23 63l38 2c-3 -15 -10 -33 -12 -49c-2 -19 -6 -42 11 -45c12 -2 17 3 26 14c6 8 14 30 25 80c10 46 8 51 0 108l-69 488l-35 46h137l-37 -46l47 -360
l49 357l-34 49h128l-33 -45z" />
    <glyph glyph-name="Agrave" unicode="&#xc0;" horiz-adv-x="416" 
d="M175 1012h79l118 -149h-52l-144 144zM203 788h147l-35 -51l99 -688l56 -49h-185l53 51l-24 165c-30 -10 -82 -13 -104 1l-25 -169l50 -48h-158l55 49l106 692zM220 274c6 -18 87 -15 85 2l-41 290z" />
    <glyph glyph-name="Atilde" unicode="&#xc3;" horiz-adv-x="416" 
d="M404 972h39c-8 -36 -18 -79 -58 -97c-46 -20 -67 9 -151 36c-22 7 -42 10 -58 -3s-20 -32 -26 -44h-38c10 41 21 79 66 98c55 21 99 -24 155 -39c20 -5 36 -5 51 8c8 7 13 16 20 41zM207 788h147l-35 -51l99 -688l56 -49h-185l54 51l-25 165c-30 -10 -82 -13 -103 1
l-26 -169l50 -48h-158l56 49l105 692zM224 274c7 -18 88 -15 85 2l-41 290z" />
    <glyph glyph-name="Otilde" unicode="&#xd5;" horiz-adv-x="330" 
d="M356 979h39c-7 -37 -18 -79 -58 -97c-46 -21 -67 8 -151 36c-22 6 -42 9 -58 -3c-16 -13 -20 -32 -26 -44h-38c10 40 21 79 66 97c55 21 99 -23 155 -38c20 -6 36 -6 51 7c9 8 13 16 20 42zM215 789c14 6 34 5 53 -8c95 -69 102 -377 102 -449c0 -62 -21 -275 -109 -332
c-16 -11 -38 -14 -58 -5c-62 27 -93 166 -98 197c-14 69 -45 538 110 597zM182 562c0 0 -4 -105 -4 -174c0 -86 4 -220 4 -220c0 -32 7 -114 33 -131c8 -6 18 -5 24 -2c32 18 35 107 35 140c0 0 5 129 5 212c0 91 -5 232 -5 232c0 44 -7 114 -30 129c-7 4 -15 4 -23 0
c-31 -17 -39 -118 -39 -186z" />
    <glyph glyph-name="endash" unicode="&#x2013;" horiz-adv-x="299" 
d="M380 320v-65h-315v65h315z" />
    <glyph glyph-name="emdash" unicode="&#x2014;" horiz-adv-x="446" 
d="M517 320v-65h-453v65h453z" />
    <glyph glyph-name="quotedblleft" unicode="&#x201c;" horiz-adv-x="343" 
d="M266 523v61c0 104 24 198 102 204v-9c-13 -2 -22 -12 -29 -20c-5 -8 -13 -18 -19 -40c-3 -12 -6 -53 -5 -78l28 -3v-115h-77zM133 523v61c0 104 25 198 103 204v-9c-13 -2 -23 -12 -29 -20c-5 -8 -14 -18 -19 -40c-3 -12 -7 -53 -6 -78l28 -3v-115h-77z" />
    <glyph glyph-name="quotedblright" unicode="&#x201d;" horiz-adv-x="343" 
d="M210 788v-61c0 -105 -24 -199 -102 -204v8c13 3 22 12 29 21c5 7 13 18 19 39c3 13 6 54 5 78l-28 3v116h77zM343 788v-61c0 -105 -25 -199 -103 -204v8c13 3 23 12 29 21c5 7 14 18 19 39c3 13 7 54 5 78l-27 3v116h77z" />
    <glyph glyph-name="quoteleft" unicode="&#x2018;" horiz-adv-x="210" 
d="M133 523v61c0 104 25 198 103 204v-9c-13 -2 -23 -12 -29 -20c-5 -8 -14 -18 -19 -40c-3 -12 -7 -53 -6 -78l28 -3v-115h-77z" />
    <glyph glyph-name="quoteright" unicode="&#x2019;" horiz-adv-x="210" 
d="M210 788v-61c0 -105 -24 -199 -102 -204v8c13 3 22 12 29 21c5 7 13 18 19 39c3 13 6 54 5 78l-28 3v116h77z" />
    <glyph glyph-name="ydieresis" unicode="&#xff;" horiz-adv-x="304" 
d="M92 744h69v-109h-69v109zM267 744h66v-109h-66v109zM233 -59c-8 -42 -17 -120 -73 -144c-17 -7 -45 -8 -66 6c-24 17 -29 38 -28 66c1 15 8 48 23 63l38 2c-3 -15 -10 -33 -12 -49c-2 -19 -6 -42 11 -45c12 -2 17 3 26 14c6 8 14 30 25 80c10 46 8 51 0 108l-69 488
l-35 46h137l-37 -46l47 -360l49 357l-34 49h128l-33 -45z" />
    <glyph glyph-name="Ydieresis" unicode="&#x178;" horiz-adv-x="406" 
d="M288 1014h78l-145 -150h-50zM224 350l-85 383l-56 55h188l-55 -55l68 -304l58 310l-42 49h155l-57 -55l-87 -418v-261l55 -54h-197l55 54v296z" />
    <glyph glyph-name="fraction" unicode="&#x2044;" horiz-adv-x="406" 
d="M150 972h69v-109h-69v109zM323 972h68v-109h-68v109zM228 350l-85 383l-55 55h187l-55 -55l68 -304l58 310l-42 49h155l-57 -55l-87 -418v-261l55 -54h-197l55 54v296z" />
    <glyph glyph-name="currency" unicode="&#xa4;" horiz-adv-x="324" 
d="M189 576h33l-33 -49v-478l29 -49h-127l29 49v480l-35 47h40c0 18 -3 151 49 187c18 13 39 17 61 9c19 -8 34 -24 46 -39c22 33 48 45 77 42c18 -2 38 -12 51 -33c9 -17 11 -55 2 -96l-31 -9c0 13 7 89 -13 102c-4 3 -11 5 -20 0c-12 -7 -10 -59 -10 -111v-52h33l-33 -49
v-478l29 -49h-127l29 49v480l-34 47h39v68h-20c0 28 1 85 -24 99c-8 4 -18 6 -26 -1c-17 -14 -14 -95 -14 -111v-55z" />
    <glyph glyph-name="guilsinglleft" unicode="&#x2039;" horiz-adv-x="491" 
d="M504 49l29 -49h-127l28 49v477l-30 50h100v-527zM312 736c6 9 14 16 22 23c24 17 63 21 92 10c30 -10 48 -33 55 -62c5 -18 5 -35 -1 -68l-40 -9c1 22 8 87 -27 109c-14 7 -30 9 -43 0c-24 -20 -21 -79 -21 -138v-25h33l-33 -49v-478l29 -49h-127l29 49v480l-35 47h37
c0 12 0 32 1 54h-9c1 22 14 87 -21 109c-14 7 -30 9 -43 0c-24 -20 -21 -79 -21 -138v-25h33l-33 -49v-478l29 -49h-127l29 49v480l-35 47h37c1 38 -7 142 52 183c23 17 63 21 92 10c18 -6 37 -18 46 -33z" />
    <glyph glyph-name="guilsinglright" unicode="&#x203a;" horiz-adv-x="495" 
d="M274 641c1 23 14 76 -21 98c-14 7 -30 9 -43 0c-24 -20 -21 -79 -21 -138v-25h33l-33 -49v-478l29 -49h-127l29 49v480l-35 47h37c1 38 -7 142 52 183c23 17 63 21 92 10c18 -6 39 -18 48 -33c5 8 17 17 24 23c24 17 95 15 128 15h42v-725l29 -49h-127l29 49v583h-9
c4 19 17 82 -13 109c-9 8 -23 10 -36 3c-32 -19 -28 -78 -28 -143v-25h33l-33 -49v-478l29 -49h-127l29 49v480l-34 47h37v65h-13z" />
    <glyph glyph-name="fi" unicode="&#xfb01;" horiz-adv-x="331" 
d="M85 576h37c1 38 -7 142 52 183c23 17 63 21 92 10c30 -10 48 -33 55 -62c5 -18 5 -35 -1 -68l-40 -9c1 22 8 87 -27 109c-14 7 -30 9 -43 0c-24 -20 -21 -79 -21 -138v-25h33l-33 -49v-478l29 -49h-127l29 49v480zM344 49l28 -49h-127l29 49v477l-30 50h100v-527z" />
    <glyph glyph-name="fl" unicode="&#xfb02;" horiz-adv-x="331" 
d="M344 774v-725l28 -49h-127l29 49v583h-8c4 19 17 82 -13 109c-10 8 -24 10 -36 3c-32 -19 -28 -78 -28 -143v-25h33l-33 -49v-478l29 -49h-127l29 49v480l-35 47h37c1 38 -7 142 52 183c23 17 95 15 128 15h42z" />
    <glyph glyph-name="Acircumflex" unicode="&#xc2;" horiz-adv-x="416" 
d="M238 1012h70l119 -149h-67l-87 107l-87 -107h-66zM203 788h147l-35 -51l99 -688l56 -49h-185l53 51l-24 165c-30 -10 -82 -13 -104 1l-25 -169l50 -48h-158l55 49l106 692zM220 274c6 -18 87 -15 85 2l-41 290z" />
    <glyph glyph-name="Ecircumflex" unicode="&#xca;" horiz-adv-x="361" 
d="M218 1012h70l119 -149h-68l-85 107l-89 -107h-66zM235 0h-157l55 54v678l-55 56h323v-252c-45 72 -72 196 -72 196h-109v-301h60c12 35 46 107 46 107h5v-277h-5c-28 60 -44 124 -45 132h-61v-341h116c30 122 47 157 84 218v-270h-185z" />
    <glyph glyph-name="Aacute" unicode="&#xc1;" horiz-adv-x="416" 
d="M297 1013h78l-146 -150h-50zM207 788h147l-35 -51l99 -688l56 -49h-185l54 51l-25 165c-30 -10 -82 -13 -103 1l-26 -169l50 -48h-158l56 49l105 692zM224 274c7 -18 88 -15 85 2l-41 290z" />
    <glyph glyph-name="Edieresis" unicode="&#xcb;" horiz-adv-x="361" 
d="M132 972h69v-109h-69v109zM305 972h67v-109h-67v109zM235 0h-157l55 54v678l-55 56h323v-252c-45 72 -72 196 -72 196h-109v-301h60c12 35 46 107 46 107h5v-277h-5c-28 60 -44 124 -45 132h-61v-341h116c30 122 47 157 84 218v-270h-185z" />
    <glyph glyph-name="Egrave" unicode="&#xc8;" horiz-adv-x="361" 
d="M155 1012h79l118 -149h-52l-144 144zM235 0h-157l55 54v678l-55 56h323v-252c-45 72 -72 196 -72 196h-109v-301h60c12 35 46 107 46 107h5v-277h-5c-28 60 -44 124 -45 132h-61v-341h116c30 122 47 157 84 218v-270h-185z" />
    <glyph glyph-name="Iacute" unicode="&#xcd;" horiz-adv-x="220" 
d="M194 1009h78l-145 -150h-49zM220 54l55 -54h-197l55 54v679l-55 55h197l-55 -55v-679z" />
    <glyph glyph-name="Icircumflex" unicode="&#xce;" horiz-adv-x="220" 
d="M140 1007h70l119 -148h-68l-86 107l-87 -107h-67zM220 54l55 -54h-197l55 54v679l-55 55h197l-55 -55v-679z" />
    <glyph glyph-name="Idieresis" unicode="&#xcf;" horiz-adv-x="220" 
d="M54 968h69v-109h-69v109zM228 968h67v-109h-67v109zM220 54l55 -54h-197l55 54v679l-55 55h197l-55 -55v-679z" />
    <glyph glyph-name="Igrave" unicode="&#xcc;" horiz-adv-x="220" 
d="M77 1007h79l118 -148h-52l-144 144zM220 54l55 -54h-197l55 54v679l-55 55h197l-55 -55v-679z" />
    <glyph glyph-name="Oacute" unicode="&#xd3;" horiz-adv-x="330" 
d="M249 1019h78l-146 -149h-49zM215 789c14 6 34 5 53 -8c95 -69 102 -377 102 -449c0 -62 -21 -275 -109 -332c-16 -11 -38 -14 -58 -5c-62 27 -93 166 -98 197c-14 69 -45 538 110 597zM182 562c0 0 -4 -105 -4 -174c0 -86 4 -220 4 -220c0 -32 7 -114 33 -131
c8 -6 18 -5 24 -2c32 18 35 107 35 140c0 0 5 129 5 212c0 91 -5 232 -5 232c0 44 -7 114 -30 129c-7 4 -15 4 -23 0c-31 -17 -39 -118 -39 -186z" />
    <glyph glyph-name="Ocircumflex" unicode="&#xd4;" horiz-adv-x="330" 
d="M194 1018h71l118 -148h-67l-87 107l-87 -107h-66zM215 789c14 6 34 5 53 -8c95 -69 102 -377 102 -449c0 -62 -21 -275 -109 -332c-16 -11 -38 -14 -58 -5c-62 27 -93 166 -98 197c-14 69 -45 538 110 597zM182 562c0 0 -4 -105 -4 -174c0 -86 4 -220 4 -220
c0 -32 7 -114 33 -131c8 -6 18 -5 24 -2c32 18 35 107 35 140c0 0 5 129 5 212c0 91 -5 232 -5 232c0 44 -7 114 -30 129c-7 4 -15 4 -23 0c-31 -17 -39 -118 -39 -186z" />
    <glyph glyph-name="Ograve" unicode="&#xd2;" horiz-adv-x="330" 
d="M131 1018h79l119 -148h-53l-144 144zM215 789c14 6 34 5 53 -8c95 -69 102 -377 102 -449c0 -62 -21 -275 -109 -332c-16 -11 -38 -14 -58 -5c-62 27 -93 166 -98 197c-14 69 -45 538 110 597zM182 562c0 0 -4 -105 -4 -174c0 -86 4 -220 4 -220c0 -32 7 -114 33 -131
c8 -6 18 -5 24 -2c32 18 35 107 35 140c0 0 5 129 5 212c0 91 -5 232 -5 232c0 44 -7 114 -30 129c-7 4 -15 4 -23 0c-31 -17 -39 -118 -39 -186z" />
    <glyph glyph-name="Uacute" unicode="&#xda;" horiz-adv-x="410" 
d="M285 1009h78l-145 -150h-50zM410 168c0 -46 4 -124 -64 -164c-32 -18 -109 -20 -146 3c-72 44 -67 100 -67 172v554l-55 55h197l-55 -55v-544c0 -52 -5 -121 33 -143c17 -10 43 -10 61 1c37 23 35 93 35 123v563l-56 55h172l-55 -55v-565z" />
    <glyph glyph-name="Ucircumflex" unicode="&#xdb;" horiz-adv-x="410" 
d="M231 1007h70l118 -148h-67l-86 107l-88 -107h-66zM410 168c0 -46 4 -124 -64 -164c-32 -18 -109 -20 -146 3c-72 44 -67 100 -67 172v554l-55 55h197l-55 -55v-544c0 -52 -5 -121 33 -143c17 -10 43 -10 61 1c37 23 35 93 35 123v563l-56 55h172l-55 -55v-565z" />
    <glyph glyph-name="Ugrave" unicode="&#xd9;" horiz-adv-x="410" 
d="M168 1007h79l118 -148h-52l-144 144zM410 168c0 -46 4 -124 -64 -164c-32 -18 -109 -20 -146 3c-72 44 -67 100 -67 172v554l-55 55h197l-55 -55v-544c0 -52 -5 -121 33 -143c17 -10 43 -10 61 1c37 23 35 93 35 123v563l-56 55h172l-55 -55v-565z" />
    <glyph glyph-name="dotlessi" unicode="&#x131;" 
d="M120 530l-32 45l101 7v-533l29 -49h-127l29 49v481z" />
    <glyph glyph-name="circumflex" unicode="&#x2c6;" horiz-adv-x="359" 
d="M210 739h71l118 -149h-67l-87 107l-87 -107h-66z" />
    <glyph glyph-name="tilde" unicode="&#x2dc;" horiz-adv-x="381" 
d="M383 712h39c-8 -36 -19 -79 -58 -97c-46 -21 -67 8 -152 36c-21 6 -41 10 -57 -3c-16 -12 -21 -31 -25 -44h-38c8 41 20 79 65 97c54 22 99 -23 155 -38c20 -6 36 -6 51 7c7 8 13 16 20 42z" />
    <glyph glyph-name="ring" unicode="&#x2da;" horiz-adv-x="280" 
d="M185 773c30 5 70 1 101 -30c35 -38 38 -103 30 -143c-9 -38 -30 -71 -71 -87c-29 -11 -71 -11 -103 12c-42 30 -52 79 -50 121c1 33 12 86 58 114c8 5 20 9 35 13zM147 719c-26 -32 -25 -89 -17 -120c8 -30 25 -52 49 -61s53 -2 70 8c34 23 38 63 38 92
c0 39 -7 75 -38 97c-20 15 -45 16 -64 10c-14 -4 -27 -14 -38 -26z" />
    </font>
</defs>
</svg>
