<svg version="1.1" id="Layer_1" xmlns="http://www.w3.org/2000/svg" xmlns:xlink="http://www.w3.org/1999/xlink" x="0px" y="0px"
	 width="100%" viewBox="0 0 253 138" enable-background="new 0 0 253 138" xml:space="preserve">
<path fill="none" opacity="1.000000" stroke="#FFFFFF" stroke-linecap="round" stroke-linejoin="round" stroke-width="3.000000"
	d="
M192.500000,66.500000 
	C187.286804,64.272804 182.943802,67.676834 178.549805,69.148705 
	C158.704071,75.796455 138.938034,82.701401 119.492043,90.480110 
	C110.038078,94.261848 100.576683,98.054619 90.960747,101.386719 
	C87.318153,102.648949 84.527969,105.195946 81.008690,106.523041 
	C74.145699,109.111053 67.230034,111.599487 60.526726,114.560501 
	C52.538204,118.089218 44.267986,120.871750 36.408607,124.817978 
	C28.150259,128.964539 19.212700,131.796860 10.461474,134.891037 
	C8.693581,135.516113 7.046030,136.040237 6.049488,137.533035 
	C5.135225,138.902588 4.134766,138.539062 3.000000,138.250000 
"/>
<path fill="none" opacity="1.000000" stroke="#FFFFFF" stroke-linecap="round" stroke-linejoin="round" stroke-width="4.000000"
	d="
M253.500000,46.000000 
	C246.459335,45.157112 240.407562,48.714001 234.026306,50.589504 
	C221.742264,54.199886 210.188538,60.064526 197.522232,62.610580 
	C196.499908,62.816078 195.486938,62.754948 194.500000,63.000000 
"/>
<path fill="none" opacity="1.000000" stroke="#FFFFFF" stroke-linecap="round" stroke-linejoin="round" stroke-width="4.000000"
	d="
M160.500000,50.500000 
	C159.704147,47.097275 157.861542,46.785084 155.526306,49.027393 
	C153.309296,51.156185 152.648346,54.150845 152.626099,57.000984 
	C152.610291,59.028736 153.022614,61.654949 155.521103,62.432152 
	C157.610092,63.081974 159.484314,62.095451 161.006531,60.506260 
	C164.015778,57.364624 167.263367,54.415661 168.520828,50.005939 
	C168.851944,48.844757 169.525604,47.865341 171.399704,48.036251 
	C173.177490,49.163418 172.440063,51.240273 172.465271,53.000496 
	C172.496307,55.169018 172.887512,56.601650 175.500000,55.500000 
"/>
<path fill="none" opacity="1.000000" stroke="#FFFFFF" stroke-linecap="round" stroke-linejoin="round" stroke-width="5.000000"
	d="
M217.500000,2.500000 
	C218.026184,7.726586 216.229126,12.618238 214.888458,17.469172 
	C212.871307,24.767843 211.125412,32.114685 209.500000,39.500000 
"/>
<path fill="none" opacity="1.000000" stroke="#FFFFFF" stroke-linecap="round" stroke-linejoin="round" stroke-width="4.000000"
	d="
M139.000000,54.500000 
	C133.741623,54.630791 133.209625,55.412151 132.402939,59.982868 
	C131.689636,64.024506 132.132736,68.696869 127.698624,71.702904 
	C123.693481,67.632744 128.494125,62.390823 125.603882,57.867569 
	C119.699829,61.294579 113.051605,64.009415 112.500000,72.500000 
"/>
<path fill="none" opacity="1.000000" stroke="#FFFFFF" stroke-linecap="round" stroke-linejoin="round" stroke-width="3.000000"
	d="
M96.000000,50.500000 
	C101.563370,49.680737 103.041016,44.586494 106.061958,41.052971 
	C107.331421,39.568111 106.991997,38.666668 105.760712,37.215748 
	C100.435249,39.448124 96.750763,43.552059 95.653793,49.030792 
	C94.239433,56.094696 89.489235,58.742393 83.500000,60.500000 
"/>
<path fill="none" opacity="1.000000" stroke="#FFFFFF" stroke-linecap="round" stroke-linejoin="round" stroke-width="5.000000"
	d="
M70.500000,60.000000 
	C66.022301,70.769676 62.752594,81.863884 61.500000,93.500000 
"/>
<path fill="none" opacity="1.000000" stroke="#FFFFFF" stroke-linecap="round" stroke-linejoin="round" stroke-width="3.000000"
	d="
M228.500000,15.500000 
	C223.109741,16.443069 220.790405,20.359570 218.957886,24.983307 
	C216.815369,30.389137 215.910706,36.409855 211.275192,41.219391 
	C208.771500,37.669891 207.101700,39.951794 205.515167,42.011684 
	C202.633026,45.753712 200.669907,50.531555 195.000000,51.000000 
"/>
<path fill="none" opacity="1.000000" stroke="#FFFFFF" stroke-linecap="round" stroke-linejoin="round" stroke-width="4.000000"
	d="
M50.000000,73.000000 
	C50.928810,73.680908 50.682163,74.786041 50.445816,75.481590 
	C48.071762,82.468323 48.864471,90.012039 46.584595,97.027489 
	C46.159611,98.335220 46.833336,100.000000 47.000000,101.500000 
"/>
<path fill="none" opacity="1.000000" stroke="#FFFFFF" stroke-linecap="round" stroke-linejoin="round" stroke-width="3.000000"
	d="
M204.750000,8.000000 
	C199.861389,13.390093 199.365784,20.460091 197.563400,27.017427 
	C197.416443,27.552080 198.166672,28.333334 198.500000,29.000000 
"/>
<path fill="none" opacity="1.000000" stroke="#FFFFFF" stroke-linecap="round" stroke-linejoin="round" stroke-width="3.000000"
	d="
M205.000000,9.500000 
	C207.659164,14.198799 204.064087,18.060070 202.789902,21.930838 
	C200.470139,28.977924 195.176971,34.759842 193.020218,42.006020 
	C192.606049,43.397533 191.535950,43.431446 190.499130,43.482426 
	C185.880737,43.709499 182.816010,46.233044 180.445938,49.965672 
	C180.178955,50.386120 179.166672,50.333328 178.500000,50.499996 
"/>
<path fill="none" opacity="1.000000" stroke="#FFFFFF" stroke-linecap="round" stroke-linejoin="round" stroke-width="4.000000"
	d="
M90.500000,73.000000 
	C88.679588,76.837639 89.899033,81.688568 86.500572,85.000191 
	C81.614998,83.697380 79.929611,81.593613 81.650833,77.564430 
	C82.656273,75.210777 84.981163,73.261040 87.093887,71.620941 
	C87.906914,70.989784 89.949234,71.036385 91.000000,72.500000 
"/>
<path fill="none" opacity="1.000000" stroke="#FFFFFF" stroke-linecap="round" stroke-linejoin="round" stroke-width="3.000000"
	d="
M81.000000,63.500000 
	C83.714905,59.395779 83.245613,56.814663 78.826790,52.323971 
	C75.585983,53.979221 73.754768,57.267357 70.999969,59.497047 
	C69.166664,57.604973 67.614830,57.503834 65.437973,59.429897 
	C61.598511,62.827019 58.291538,67.062317 53.000000,68.500000 
"/>
<path fill="none" opacity="1.000000" stroke="#FFFFFF" stroke-linecap="round" stroke-linejoin="round" stroke-width="6.000000"
	d="
M38.500000,63.500000 
	C35.237183,66.154488 36.060432,70.105011 35.584934,73.511856 
	C34.333683,82.476784 33.500000,91.500000 32.500000,100.500000 
"/>
<path fill="none" opacity="1.000000" stroke="#FFFFFF" stroke-linecap="round" stroke-linejoin="round" stroke-width="7.000000"
	d="
M193.000000,43.500000 
	C194.540924,47.570061 194.111801,51.820229 193.960052,55.998550 
	C193.635635,64.930634 192.419937,73.766159 190.500000,82.500000 
"/>
<path fill="none" opacity="1.000000" stroke="#FFFFFF" stroke-linecap="round" stroke-linejoin="round" stroke-width="4.000000"
	d="
M35.000000,84.000000 
	C39.060482,85.456436 40.622868,89.342079 42.278595,92.612106 
	C43.293644,94.616806 44.805218,95.853012 46.000000,97.500000 
"/>
<path fill="none" opacity="1.000000" stroke="#FFFFFF" stroke-linecap="round" stroke-linejoin="round" stroke-width="5.000000"
	d="
M91.500000,72.500000 
	C94.392426,73.095749 95.690063,75.557312 97.565460,77.434601 
	C99.536804,79.407936 101.902290,81.488564 105.000000,79.000000 
"/>
<path fill="none" opacity="1.000000" stroke="#FFFFFF" stroke-linecap="round" stroke-linejoin="round" stroke-width="3.000000"
	d="
M57.500000,57.000000 
	C53.779758,59.306545 53.360176,63.306667 52.552986,67.011543 
	C51.999325,69.552742 51.686687,71.393097 48.595387,72.721909 
	C44.448353,74.504509 40.949596,77.790657 36.000000,77.500000 
"/>
<path fill="none" opacity="1.000000" stroke="#FFFFFF" stroke-linecap="round" stroke-linejoin="round" stroke-width="5.000000"
	d="
M91.500000,58.000000 
	C92.403000,62.655888 89.588211,66.898689 90.000000,71.500000 
"/>
<path fill="none" opacity="1.000000" stroke="#FFFFFF" stroke-linecap="round" stroke-linejoin="round" stroke-width="5.000000"
	d="
M211.000000,41.500000 
	C210.248383,44.816341 208.490417,47.931419 209.000000,51.500000 
"/>
<path fill="none" opacity="1.000000" stroke="#FFFFFF" stroke-linecap="round" stroke-linejoin="round" stroke-width="4.000000"
	d="
M145.500000,50.500000 
	C142.578293,52.043297 138.574982,52.651703 139.497360,57.500504 
	C140.102280,60.680546 143.266754,62.648979 143.012985,65.993156 
	C146.542816,66.042809 146.480759,62.980762 148.000000,61.500000 
"/>
<path fill="none" opacity="1.000000" stroke="#FFFFFF" stroke-linecap="round" stroke-linejoin="round" stroke-width="2.000000"
	d="
M31.500000,101.000000 
	C30.288433,101.824715 29.103966,102.721687 27.500000,102.500000 
"/>
</svg>